<?xml version="1.0" encoding="UTF-8" standalone="no"?> <!-- Created with Inkscape (http://www.inkscape.org/) --> <svg
   xmlns:dc="http://purl.org/dc/elements/1.1/"
   xmlns:cc="http://creativecommons.org/ns#"
   xmlns:rdf="http://www.w3.org/1999/02/22-rdf-syntax-ns#"
   xmlns:svg="http://www.w3.org/2000/svg"
   xmlns="http://www.w3.org/2000/svg"
   xmlns:sodipodi="http://sodipodi.sourceforge.net/DTD/sodipodi-0.dtd"
   xmlns:inkscape="http://www.inkscape.org/namespaces/inkscape"
   width="744.09448819"
   height="1052.3622047"
   id="svg2"
   version="1.1"
   inkscape:version="0.48.4 r9939"
   sodipodi:docname="New document 1.2015_04_02_22_33_29.0.svg">
  <defs
     id="defs4" />
  <sodipodi:namedview
     id="base"
     pagecolor="#ffffff"
     bordercolor="#666666"
     borderopacity="1.0"
     inkscape:pageopacity="0.0"
     inkscape:pageshadow="2"
     inkscape:zoom="0.7"
     inkscape:cx="250.34076"
     inkscape:cy="605.04853"
     inkscape:document-units="px"
     inkscape:current-layer="layer1"
     showgrid="false"
     inkscape:window-width="1317"
     inkscape:window-height="744"
     inkscape:window-x="49"
     inkscape:window-y="24"
     inkscape:window-maximized="1" />
  <metadata
     id="metadata7">
    <rdf:RDF>
      <cc:Work
         rdf:about="">
        <dc:format>image/svg+xml</dc:format>
        <dc:type
           rdf:resource="http://purl.org/dc/dcmitype/StillImage" />
      </cc:Work>
    </rdf:RDF>
  </metadata>
  <g
     inkscape:label="Layer 1"
     inkscape:groupmode="layer"
     id="layer1">
    <rect
       style="fill:none;stroke:#000000;stroke-opacity:1"
       id="rect2985"
       width="100"
       height="100.0051"
       x="50"
       y="902.35706" />
    <rect
       y="532.13733"
       x="673.56232"
       height="141.14383"
       width="141.13664"
       id="rect3755"
       style="fill:none;stroke:#000000;stroke-width:1.41136646;stroke-opacity:1"
       transform="matrix(0.70710678,0.70710678,-0.70710678,0.70710678,0,0)" />
    <path
       sodipodi:type="arc"
       style="fill:none;stroke:#000000;stroke-opacity:1"
       id="path3757"
       sodipodi:cx="99.24749"
       sodipodi:cy="950.58929"
       sodipodi:rx="99.752563"
       sodipodi:ry="99.752563"
       d="m 199.00005,950.58929 a 99.752563,99.752563 0 1 1 -199.50512355,0 99.752563,99.752563 0 1 1 199.50512355,0 z"
       transform="matrix(0.70600617,0,0,0.70779822,29.93066,279.28419)" />
    <rect
       y="882.20148"
       x="29.84543"
       height="140.31628"
       width="140.30914"
       id="rect2986"
       style="fill:none;stroke:#000000;stroke-width:1.40309143;stroke-opacity:1" />
    <path
       style="fill:#ff0000"
       d="m 171.1651,952.32427 0,-27.32026 13.66013,13.66013 13.66013,13.66013 -13.66013,13.66013 -13.66013,13.66013 0,-27.32026 z"
       id="path2988"
       inkscape:connector-curvature="0" />
    <path
       style="fill:#ff0000"
       d="M 15.206992,966.04801 1.4598897,952.29743 15.298018,938.4593 l 13.838128,-13.83813 0,27.58871 c 0,15.1738 -0.04096,27.58871 
-0.09102,27.58871 -0.05006,0 -6.277222,-6.18776 -13.838129,-13.75058 z"
       id="path2990"
       inkscape:connector-curvature="0" />
    <path
       style="fill:#ff0000"
       d="m 86.299613,867.45655 13.725937,-13.72941 13.66244,13.65899 c 7.51434,7.51244 13.66244,13.69067 13.66244,13.72941 0,0.0387 
-12.32477,0.0704 -27.388374,0.0704 l -27.388376,0 13.725933,-13.72941 0,0 z"
       id="path2992"
       inkscape:connector-curvature="0" />
    <path
       style="fill:#ff0000"
       d="m 86.279003,1037.12 -13.746521,-13.75 27.496518,0 27.49652,0 -13.74652,13.75 c -7.56058,7.5625 -13.74808,13.75 -13.75,13.75 -0.002,0 
-6.18941,-6.1875 -13.749997,-13.75 z"
       id="path2996"
       inkscape:connector-curvature="0" />
    <path
       style="fill:none;stroke:#000000;stroke-width:1px;stroke-linecap:butt;stroke-linejoin:miter;stroke-opacity:1;fill-opacity:1"
       d="m 129.67833,1022.5627 41.28999,41.29 0,-141.29512 39.71162,-39.71162 -139.842993,0 -42.331706,-42.33171 0,141.51606 -40.327184,40.32719 
z"
       id="path2998"
       inkscape:connector-curvature="0"
       sodipodi:nodetypes="ccccc" />
    <path
       sodipodi:type="arc"
       style="fill:none;stroke:#000000;stroke-opacity:1"
       id="path3772"
       sodipodi:cx="101.52033"
       sodipodi:cy="953.87231"
       sodipodi:rx="99.500023"
       sodipodi:ry="99.500023"
       d="m 201.02036,953.87231 a 99.500023,99.500023 0 1 1 -199.0000506,0 99.500023,99.500023 0 1 1 199.0000506,0 z"
       transform="translate(-1.5152288,-1.5152288)" />
    <path
       style="fill:#00ff00;fill-opacity:1;stroke:#000000;stroke-width:0.50507629;stroke-opacity:1"
       d="m 185.25407,936.12098 -13.35685,-13.36399 7.81739,-7.82962 7.81739,-7.82962 1.67628,3.32505 c 3.15114,6.25056 6.65454,17.18508 
8.15851,25.46363 0.5042,2.77536 1.51199,13.1593 1.30939,13.49153 -0.0359,0.0589 -6.07584,-5.90679 -13.42211,-13.25698 l 0,0 z"
       id="path3774"
       inkscape:connector-curvature="0" />
    <path
       style="fill:#00ff00;fill-opacity:1;stroke:#000000;stroke-width:0.50507629;stroke-opacity:1"
       d="m 171.65505,1001.0378 -0.02,-18.94391 13.56809,-13.56111 13.56809,-13.56111 -0.19874,2.70548 c -1.017,13.84522 -3.82031,24.75943 
-9.50579,37.00915 -3.47373,7.4844 -9.80818,17.0574 -15.06683,22.7699 l -2.32472,2.5254 -0.02,-18.9438 0,0 z"
       id="path3776"
       inkscape:connector-curvature="0" />
    <path
       style="fill:#00ff00;fill-opacity:1;stroke:#000000;stroke-width:0.50507629;stroke-opacity:1"
       d="m 171.15255,902.54528 0.0226,-18.42917 2.29478,2.52538 c 4.4872,4.93811 9.93093,12.53237 12.69783,17.71407 0.5034,0.94275 
-0.21461,1.81877 -7.23953,8.83272 l -7.79835,7.78618 0.0226,-18.42918 z"
       id="path3778"
       inkscape:connector-curvature="0" />
    <path
       style="fill:#00ff00;fill-opacity:1;stroke:#000000;stroke-width:0.50507629;stroke-opacity:1"
       d="m 185.73283,900.45008 c -2.98862,-4.95665 -7.63638,-11.25284 -10.46433,-14.17575 -1.27045,-1.31311 -2.18805,-2.50934 -2.0391,-2.65829 
0.14894,-0.14894 8.14921,-0.211 17.77837,-0.13791 l 17.50756,0.13291 -10.27698,10.26754 -10.27698,10.26755 -2.22854,-3.69605 z"
       id="path3780"
       inkscape:connector-curvature="0" />
    <path
       style="fill:#00ff00;fill-opacity:1;stroke:#000000;stroke-width:0.50507629;stroke-opacity:1"
       d="m 116.57824,867.41175 -13.88616,-13.92644 3.53554,0.32106 c 13.8527,1.25797 24.22824,3.99453 36.34874,9.58705 7.32061,3.3778 
17.14946,9.96412 23.25026,15.58001 l 2.52538,2.32465 -18.9438,0.0201 -18.94381,0.0201 -13.88615,-13.92644 z"
       id="path3782"
       inkscape:connector-curvature="0" />
    <path
       style="fill:#00ff00;fill-opacity:1;stroke:#000000;stroke-width:0.50507629;stroke-opacity:1"
       d="m 62.05142,873.02244 c -4.289167,-4.29588 -7.695681,-7.90549 -7.570033,-8.02136 0.696048,-0.6419 7.186649,-3.62399 10.736555,-4.93289 
9.069241,-3.34393 18.694824,-5.46527 28.38277,-6.25514 l 4.04061,-0.32944 -13.633552,13.67475 c -7.498453,7.52112 -13.751522,13.67476 
-13.895709,13.67476 -0.144186,0 -3.771475,-3.51481 -8.060641,-7.81068 z"
       id="path3784"
       inkscape:connector-curvature="0" />
    <path
       style="fill:#00ff00;fill-opacity:1;stroke:#000000;stroke-width:0.50507629;stroke-opacity:1"
       d="m 33.749173,879.3061 c 4.994665,-4.45961 10.501484,-8.46256 17.199122,-12.50216 l 1.794296,-1.08221 7.796042,7.80823 7.796042,7.80823 
-18.429172,-0.001 -18.429173,-10e-4 2.272843,-2.02936 z"
       id="path3786"
       inkscape:connector-curvature="0" />
    <path
       style="fill:#00ff00;fill-opacity:1;stroke:#000000;stroke-width:0.50507629;stroke-opacity:1"
       d="m 29.203487,861.51825 0,-19.31486 11.111678,11.10307 c 6.111423,6.10669 11.111678,11.1383 11.111678,11.18136 0,0.0431 -1.761454,1.1675 
-3.914341,2.49875 -4.927249,3.04678 -10.813918,7.48383 -14.690687,11.07303 -1.64765,1.52543 -3.135812,2.77352 -3.307028,2.77352 -0.171215,0 
-0.3113,-8.69169 -0.3113,-19.31487 z"
       id="path3788"
       inkscape:connector-curvature="0" />
    <path
       style="fill:#00ff00;fill-opacity:1;stroke:#000000;stroke-width:0.50507629;stroke-opacity:1"
       d="m 1.6214361,944.9778 c 0.9288663,-14.34695 5.948878,-30.21895 13.5784109,-42.93148 2.843041,-4.73715 9.094892,-13.20101 
11.164038,-15.11406 l 1.324373,-1.22446 0,18.90577 0,18.90578 -13.188737,13.12834 -13.1887369,13.12834 0.310652,-4.79823 z"
       id="path3790"
       inkscape:connector-curvature="0" />
    <path
       style="fill:#00ff00;fill-opacity:1;stroke:#000000;stroke-width:0.50507629;stroke-opacity:1"
       d="M 10.879552,994.67837 C 6.2121095,985.40529 2.3402366,970.74418 1.6222627,959.62502 l -0.3098255,-4.79823 13.3125758,13.25785 
13.312577,13.25785 -7.905909,7.90591 -7.905909,7.90591 -1.24622,-2.47594 z"
       id="path3792"
       inkscape:connector-curvature="0" />
    <path
       style="fill:#00ff00;fill-opacity:1;stroke:#000000;stroke-width:0.50507629;stroke-opacity:1"
       d="m 25.890553,1017.3586 c -3.819671,-4.4016 -7.605075,-9.5662 -10.427747,-14.2271 l -2.557619,-4.22321 7.896612,-7.89661 7.896612,-7.89661 
0,18.55953 c 0,10.2078 -0.07029,18.5596 -0.156208,18.5596 -0.08591,0 -1.279156,-1.2941 -2.65165,-2.8756 z"
       id="path3794"
       inkscape:connector-curvature="0" />
    <path
       style="fill:#00ff00;fill-opacity:1;stroke:#000000;stroke-width:0.50507629;stroke-opacity:1"
       d="m 0.89384925,1010.9156 c 9.40894475,-9.4165 10.89997575,-10.7214 11.39840575,-9.9752 0.315393,0.4722 1.451037,2.3358 2.523654,4.1415 
2.627009,4.4223 7.402225,10.7789 10.528978,14.0158 l 2.561402,2.6517 -18.9187011,0 -18.9187014,0 10.82496275,-10.8338 z"
       id="path3796"
       inkscape:connector-curvature="0" />
    <path
       style="fill:#00ff00;fill-opacity:1;stroke:#000000;stroke-width:0.50507629;stroke-opacity:1"
       d="m 91.07533,1050.7123 c -12.576527,-1.4953 -22.481212,-4.2341 -33.082495,-9.1475 -7.986135,-3.7014 -17.13248,-9.7947 -23.991123,-15.9829 l 
-2.525382,-2.2785 19.196343,-0.019 19.196342,-0.019 13.882709,13.8896 13.882709,13.8896 -2.521937,-0.076 c -1.387066,-0.042 -3.20379,-0.1567 
-4.037166,-0.2558 z"
       id="path3798"
       inkscape:connector-curvature="0" />
    <path
       style="fill:#00ff00;fill-opacity:1;stroke:#000000;stroke-width:0.50507629;stroke-opacity:1"
       d="m 116.32452,1037.4598 13.63243,-13.6879 7.95912,7.9475 7.95911,7.9474 -3.4088,1.721 c -9.57476,4.8339 -23.27255,8.4725 -35.48115,9.4249 l 
-4.29315,0.3349 13.63244,-13.6878 z"
       id="path3800"
       inkscape:connector-curvature="0" />
    <path
       style="fill:#00ff00;fill-opacity:1;stroke:#000000;stroke-width:0.50507629;stroke-opacity:1"
       d="m 139.31011,1031.0933 -7.81646,-7.8287 18.40199,0 18.40198,0 -1.74058,1.8041 c -2.35424,2.4402 -10.46623,8.5689 -15.1938,11.4791 
-2.12122,1.3058 -3.94225,2.3742 -4.04672,2.3742 -0.10447,0 -3.70735,-3.5229 -8.00641,-7.8287 z"
       id="path3802"
       inkscape:connector-curvature="0" />
    <path
       style="fill:#00ff00;fill-opacity:1;stroke:#000000;stroke-width:0.50507629;stroke-opacity:1"
       d="m 159.11922,1050.9025 -10.7392,-10.7479 3.42,-2.0002 c 3.79982,-2.2224 11.59336,-8.001 15.6681,-11.6173 l 2.65165,-2.3533 0,18.7333 c 
0,10.3033 -0.0588,18.7333 -0.13068,18.7333 -0.0719,0 -4.96331,-4.8365 -10.86987,-10.7479 z"
       id="path3804"
       inkscape:connector-curvature="0" />
    <path
       sodipodi:type="arc"
       style="fill:none;stroke:#000000;stroke-opacity:1"
       id="path3772-5"
       sodipodi:cx="101.52033"
       sodipodi:cy="953.87231"
       sodipodi:rx="99.500023"
       sodipodi:ry="99.500023"
       d="m 201.02036,953.87231 a 99.500023,99.500023 0 1 1 -199.0000506,0 99.500023,99.500023 0 1 1 199.0000506,0 z"
       transform="translate(297.01594,-513.75105)" />
    <path
       sodipodi:type="arc"
       style="fill:none;stroke:#000000;stroke-opacity:1"
       id="path3772-5-0"
       sodipodi:cx="101.52033"
       sodipodi:cy="953.87231"
       sodipodi:rx="99.500023"
       sodipodi:ry="99.500023"
       d="m 201.02036,953.87231 a 99.500023,99.500023 0 1 1 -199.0000506,0 99.500023,99.500023 0 1 1 199.0000506,0 z"
       transform="translate(79.873076,-503.38744)" />
    <path
       style="fill:none;stroke:#000000;stroke-width:1px;stroke-linecap:butt;stroke-linejoin:miter;stroke-opacity:1"
       d="M 131.31983,500.31382 231.32493,400.30871"
       id="path3992"
       inkscape:connector-curvature="0" />
    <path
       style="fill:none;stroke:#000000;stroke-width:1px;stroke-linecap:butt;stroke-linejoin:miter;stroke-opacity:1"
       d="M 231.57747,500.56635 131.31983,400.30871"
       id="path3994"
       inkscape:connector-curvature="0" />
    <path
       style="fill:none;stroke:#000000;stroke-width:1px;stroke-linecap:butt;stroke-linejoin:miter;stroke-opacity:1"
       d="m 326.87068,469.74715 -40.1,40.1 41.35432,0"
       id="path3996"
       inkscape:connector-curvature="0" />
    <path
       style="fill:none;stroke:#000000;stroke-width:1px;stroke-linecap:butt;stroke-linejoin:miter;stroke-opacity:1"
       d="m 469.42846,509.77445 0,41.92133 -41.28999,-41.28999"
       id="path3998"
       inkscape:connector-curvature="0" />
    <path
       style="fill:none;stroke:#000000;stroke-width:1px;stroke-linecap:butt;stroke-linejoin:miter;stroke-opacity:1"
       d="m 469.375,410.39789 39.82143,-39.82143 -39.55357,0"
       id="path4000"
       inkscape:connector-curvature="0" />
    <path
       style="fill:none;stroke:#000000;stroke-width:1px;stroke-linecap:butt;stroke-linejoin:miter;stroke-opacity:1"
       d="m 369.54963,370.62593 -42.55268,-42.55267 0,43.18402"
       id="path4002"
       inkscape:connector-curvature="0" />
  </g>
</svg>
