<?xml version="1.0" encoding="UTF-8" standalone="no"?> <!-- Created with Inkscape (http://www.inkscape.org/) --> <svg
   xmlns:dc="http://purl.org/dc/elements/1.1/"
   xmlns:cc="http://creativecommons.org/ns#"
   xmlns:rdf="http://www.w3.org/1999/02/22-rdf-syntax-ns#"
   xmlns:svg="http://www.w3.org/2000/svg"
   xmlns="http://www.w3.org/2000/svg"
   xmlns:sodipodi="http://sodipodi.sourceforge.net/DTD/sodipodi-0.dtd"
   xmlns:inkscape="http://www.inkscape.org/namespaces/inkscape"
   width="530"
   height="300"
   id="svg2"
   version="1.1"
   inkscape:version="0.48.4 r9939"
   sodipodi:docname="template.svg">
  <defs
     id="defs4" />
  <sodipodi:namedview
     id="base"
     pagecolor="#ffffff"
     bordercolor="#666666"
     borderopacity="1.0"
     inkscape:pageopacity="0.0"
     inkscape:pageshadow="2"
     inkscape:zoom="2"
     inkscape:cx="230.34367"
     inkscape:cy="241.95186"
     inkscape:document-units="px"
     inkscape:current-layer="layer1"
     showgrid="false"
     inkscape:window-width="1317"
     inkscape:window-height="744"
     inkscape:window-x="49"
     inkscape:window-y="24"
     inkscape:window-maximized="1"
     inkscape:snap-page="true"
     showguides="true"
     inkscape:guide-bbox="true" />
  <metadata
     id="metadata7">
    <rdf:RDF>
      <cc:Work
         rdf:about="">
        <dc:format>image/svg+xml</dc:format>
        <dc:type
           rdf:resource="http://purl.org/dc/dcmitype/StillImage" />
        <dc:title />
      </cc:Work>
    </rdf:RDF>
  </metadata>
  <g
     inkscape:label="Layer 1"
     inkscape:groupmode="layer"
     id="layer1"
     transform="translate(0,-752.36214)">
    <path
       style="fill:none;stroke:#000000;stroke-width:0.646415;stroke-opacity:1"
       d="m 268.18292,830.9134 c 0.45567,-0.24754 0.91467,-0.48973 1.37691,-0.72648 0.46224,-0.23677 0.92772,-0.46809 1.39636,-0.69391 
0.46864,-0.22581 0.94044,-0.44611 1.41531,-0.66081 0.47487,-0.2147 0.95282,-0.4238 1.43375,-0.62722 0.48094,-0.20342 0.96486,-0.40115 
1.45169,-0.59312 0.48682,-0.19197 0.97656,-0.37817 1.46911,-0.55851 0.49255,-0.18035 0.98793,-0.35485 1.48604,-0.52341 0.49811,-0.16856 
0.99895,-0.33118 1.50245,-0.48779 0.5035,-0.1566 1.00965,-0.30719 1.51837,-0.45167 0.50872,-0.14448 1.02001,-0.28285 1.53378,-0.41504 
0.51377,-0.13219 1.03003,-0.25819 1.54869,-0.37792 0.51865,-0.11972 1.03971,-0.23317 1.56308,-0.34027 0.52337,-0.1071 1.04905,-0.20784 
1.57697,-0.30214 0.52792,-0.0943 1.05807,-0.18216 1.59036,-0.26349 0.5323,-0.0813 1.06674,-0.15614 1.60325,-0.22434 0.53651,-0.0682 
1.07508,-0.12979 1.61563,-0.18468 0.54054,-0.0549 1.08307,-0.1031 1.62749,-0.14453 0.54442,-0.0414 1.09074,-0.0761 1.63887,-0.10385 0.54812,-0.0278 
1.09806,-0.0487 1.64972,-0.0627 0.55167,-0.014 1.10506,-0.021 1.66009,-0.021 0.55503,0 1.10842,0.007 1.66008,0.021 0.55167,0.014 1.1016,0.0349 
1.64973,0.0627 0.54813,0.0278 1.09445,0.0624 1.63886,0.10385 0.54443,0.0414 1.08696,0.0896 1.6275,0.14453 0.54055,0.0549 1.07912,0.11648 
1.61563,0.18468 0.5365,0.0682 1.07094,0.143 1.60324,0.22434 0.5323,0.0813 1.06245,0.16919 1.59037,0.26349 0.52791,0.0943 1.0536,0.19504 
1.57697,0.30214 0.52337,0.1071 1.04443,0.22055 1.56308,0.34027 0.51866,0.11973 1.03492,0.24573 1.54869,0.37792 0.51377,0.13219 1.02506,0.27056 
1.53378,0.41504 0.50871,0.14448 1.01487,0.29507 1.51837,0.45167 0.5035,0.15661 1.00434,0.31923 1.50245,0.48779 0.49811,0.16856 0.99349,0.34306 
1.48604,0.52341 0.49255,0.18034 0.98229,0.36654 1.46912,0.55851 0.48682,0.19197 0.97074,0.3897 1.45168,0.59312 0.48093,0.20342 0.95887,0.41252 
1.43374,0.62722 0.47488,0.2147 0.94667,0.435 1.41532,0.66081 0.46863,0.22582 0.93412,0.45714 1.39636,0.69391 0.46224,0.23675 0.92124,0.47894 
1.37691,0.72648 0.45568,0.24753 0.90803,0.50042 1.35696,0.75856 0.44894,0.25815 0.89447,0.52156 1.3365,0.79014 0.44204,0.26859 0.88058,0.54235 
1.31554,0.82122 0.43496,0.27885 0.86633,0.5628 1.29405,0.85176 0.42772,0.28896 0.85179,0.58294 1.27209,0.88184 0.42031,0.29889 0.83688,0.60271 
1.24961,0.91138 0.41273,0.30866 0.82163,0.62216 1.22662,0.94043 0.40498,0.31826 0.80605,0.64128 1.20313,0.96897 0.39707,0.3277 0.79014,0.66006 
1.17913,0.99701 0.38899,0.33696 0.77389,0.6785 1.15462,1.02455 0.38074,0.34605 0.75731,0.6966 1.12963,1.05157 0.37232,0.35497 0.74038,0.71437 
1.10411,1.07809 0.36373,0.36373 0.34797,0.24121 0.70294,0.61353 m 10.55624,14.59616 c 0.24753,0.45568 0.30607,0.52697 0.54283,0.98921 
0.23676,0.46225 0.46809,0.92772 0.69391,1.39637 0.22581,0.46864 0.44611,0.94044 0.66081,1.4153 0.2147,0.47488 0.4238,0.95282 0.62721,1.43375 
0.20342,0.48094 0.40116,0.96486 0.59313,1.45169 0.19196,0.48683 0.37816,0.97656 0.55851,1.46911 0.18035,0.49255 0.35485,0.98793 0.52341,1.48604 
0.16855,0.49811 0.33118,0.99896 0.48779,1.50246 0.1566,0.5035 0.30719,1.00964 0.45167,1.51837 0.14448,0.50872 0.28285,1.02 0.41504,1.53378 
0.13218,0.51377 0.25818,1.03002 0.37791,1.54868 0.11973,0.51866 0.23318,1.03971 0.34028,1.56308 0.10709,0.52337 0.20784,1.04906 0.30214,1.57698 
0.0943,0.52791 0.18215,1.05806 0.26349,1.59036 0.0813,0.5323 0.15614,1.06674 0.22434,1.60324 0.0682,0.53651 0.12978,1.07508 0.18468,1.61563 
0.0549,0.54055 0.10309,1.08307 0.14452,1.6275 0.0414,0.54442 0.0761,1.09073 0.10386,1.63886 0.0278,0.54813 0.0487,1.09806 0.0627,1.64973 
0.014,0.55166 0.021,1.10505 0.021,1.66008 0,0.55503 -0.007,1.10842 -0.021,1.66008 -0.014,0.55167 -0.0349,1.10161 -0.0627,1.64973 -0.0278,0.54813 
-0.0625,1.09445 -0.10386,1.63887 -0.0414,0.54442 -0.0896,1.08695 -0.14452,1.6275 -0.0549,0.54055 -0.11649,1.07912 -0.18468,1.61562 -0.0682,0.53651 
-0.14301,1.07095 -0.22434,1.60325 -0.0813,0.5323 -0.16919,1.06245 -0.26349,1.59037 -0.0943,0.52791 -0.19505,1.0536 -0.30214,1.57697 -0.1071,0.52337 
-0.22055,1.04443 -0.34028,1.56308 -0.11973,0.51866 -0.24573,1.03492 -0.37791,1.54869 -0.13219,0.51377 -0.27056,1.02505 -0.41504,1.53378 
-0.14448,0.50871 -0.29507,1.01487 -0.45167,1.51837 -0.15661,0.5035 -0.31924,1.00434 -0.48779,1.50245 -0.16856,0.49811 -0.34306,0.99349 
-0.52341,1.48604 -0.18035,0.49256 -0.36655,0.98229 -0.55851,1.46911 -0.19197,0.48683 -0.38971,0.97075 -0.59313,1.45168 -0.20341,0.48094 
-0.41251,0.95888 -0.62721,1.43375 -0.2147,0.47488 -0.435,0.94667 -0.66081,1.41532 -0.22582,0.46863 -0.45715,0.93412 -0.69391,1.39635 
-0.23676,0.46225 -0.47895,0.92124 -0.72649,1.37689 -0.24753,0.45573 -0.50041,0.90802 -0.75856,1.35696 -0.25814,0.449 -0.52155,0.89451 
-0.79014,1.33653 -0.26858,0.44202 -0.54235,0.88054 -0.82121,1.31552 -0.27886,0.43497 -0.56281,0.86632 -0.85177,1.29405 -0.28896,0.42774 
-0.58294,0.85178 -0.88183,1.27208 -0.2989,0.42037 -0.60272,0.83692 -0.91138,1.24965 -0.30866,0.41274 -0.62217,0.8216 -0.94043,1.22658 
-0.31826,0.40497 -0.64128,0.80608 -0.96898,1.20317 -0.32769,0.39703 -0.66005,0.79011 -0.99701,1.17912 -0.33696,0.38895 -0.6785,0.77389 
-1.02454,1.15463 -0.34605,0.38074 -0.6966,0.75727 -1.05158,1.12961 -0.35497,0.37234 -0.71436,0.7404 -1.07809,1.10414 m -14.82199,11.07548 c 
-0.45567,0.24751 -0.91467,0.48973 -1.37691,0.72651 -0.46224,0.23671 -0.92773,0.46807 -1.39636,0.69386 -0.46865,0.22586 -0.94044,0.44615 
-1.41532,0.66083 -0.47487,0.21467 -0.95281,0.42379 -1.43374,0.62722 -0.48094,0.20342 -0.96486,0.40116 -1.45168,0.59315 -0.48683,0.19192 
-0.97657,0.37815 -1.46912,0.5585 -0.49255,0.18035 -0.98793,0.35482 -1.48604,0.5234 -0.49811,0.16852 -0.99895,0.33116 -1.50245,0.48779 
-0.5035,0.15656 -1.00966,0.30717 -1.51837,0.45165 -0.50872,0.14447 -1.02001,0.28287 -1.53378,0.41506 -0.51377,0.13219 -1.03003,0.25818 
-1.54869,0.37789 -0.51865,0.11972 -1.03971,0.23316 -1.56308,0.34028 -0.52337,0.10711 -1.04906,0.20782 -1.57697,0.30213 -0.52792,0.0943 
-1.05807,0.18216 -1.59037,0.26348 -0.5323,0.0814 -1.06674,0.15617 -1.60324,0.22437 -0.53651,0.0682 -1.07508,0.1298 -1.61563,0.18468 -0.54054,0.0549 
-1.08307,0.1031 -1.6275,0.14454 -0.54441,0.0414 -1.09073,0.076 -1.63886,0.10381 -0.54813,0.0278 -1.09806,0.0485 -1.64973,0.0627 -0.55166,0.0142 
-1.10505,0.0213 -1.66008,0.0213 -0.55503,0 -1.10842,-0.007 -1.66009,-0.0213 -0.55166,-0.0142 -1.1016,-0.0349 -1.64972,-0.0627 -0.54813,-0.0278 
-1.09445,-0.062 -1.63887,-0.10381 -0.54442,-0.0414 -1.08695,-0.0897 -1.62749,-0.14454 -0.54055,-0.0549 -1.07912,-0.11648 -1.61563,-0.18468 
-0.53651,-0.0682 -1.07095,-0.14299 -1.60325,-0.22437 -0.53229,-0.0813 -1.06244,-0.16917 -1.59036,-0.26348 -0.52792,-0.0943 -1.0536,-0.19502 
-1.57697,-0.30213 -0.52337,-0.10712 -1.04443,-0.22056 -1.56308,-0.34028 -0.51866,-0.11971 -1.03492,-0.2457 -1.54869,-0.37789 -0.51377,-0.13219 
-1.02506,-0.27059 -1.53378,-0.41506 -0.50872,-0.14448 -1.01487,-0.29509 -1.51837,-0.45165 -0.5035,-0.15663 -1.00434,-0.31927 -1.50245,-0.48779 
-0.49811,-0.16858 -0.99349,-0.34305 -1.48604,-0.5234 -0.49255,-0.18035 -0.98229,-0.36658 -1.46911,-0.5585 -0.48683,-0.19199 -0.97075,-0.38973 
-1.45169,-0.59315 -0.48093,-0.20343 -0.95888,-0.41255 -1.43375,-0.62722 -0.47487,-0.21468 -0.94667,-0.43497 -1.41531,-0.66083 -0.46864,-0.22579 
-0.93412,-0.45715 -1.39636,-0.69386 -0.46224,-0.23678 -0.92124,-0.479 -1.37691,-0.72651 -0.45568,-0.24751 -0.90803,-0.50039 -1.35696,-0.75857 
-0.44894,-0.25811 -0.89447,-0.52152 -1.3365,-0.79011 -0.44203,-0.26858 -0.88057,-0.54234 -1.31553,-0.8212 -0.43496,-0.27887 -0.86635,-0.56284 
-1.29407,-0.85179 -0.42772,-0.28894 -0.85177,-0.58293 -1.27208,-0.88184 -0.42031,-0.2989 -0.83688,-0.60271 -1.24961,-0.91138 -0.41273,-0.30866 
-0.82163,-0.62217 -1.22662,-0.9404 -0.40498,-0.31829 -0.80605,-0.64131 -1.20312,-0.96898 -0.39708,-0.32773 -0.79015,-0.66005 -1.17914,-0.99703 
-0.38898,-0.33697 -0.77389,-0.67847 -1.15463,-1.02456 -0.38073,-0.34603 -0.7573,-0.69658 -1.12962,-1.05153 -0.37232,-0.35501 -0.74038,-0.71442 
-1.10411,-1.07809 -0.36373,-0.36374 -0.13875,-0.20517 -0.49372,-0.57751 m -10.94253,-15.00923 c -0.24753,-0.45569 -0.129,-0.14994 -0.36576,-0.61219 
-0.23676,-0.46223 -0.46809,-0.92772 -0.6939,-1.39635 -0.22582,-0.46865 -0.44611,-0.94044 -0.66081,-1.41532 -0.21471,-0.47487 -0.42381,-0.95281 
-0.62722,-1.43375 -0.20342,-0.48093 -0.40116,-0.96485 -0.59312,-1.45168 -0.19197,-0.48682 -0.37817,-0.97655 -0.55852,-1.46911 -0.18035,-0.49255 
-0.35484,-0.98793 -0.5234,-1.48604 -0.16856,-0.49811 -0.33119,-0.99895 -0.48779,-1.50245 -0.15661,-0.5035 -0.30719,-1.00966 -0.45167,-1.51837 
-0.14448,-0.50873 -0.28286,-1.02001 -0.41504,-1.53378 -0.13219,-0.51377 -0.25819,-1.03003 -0.37792,-1.54869 -0.11972,-0.51865 -0.23318,-1.03971 
-0.34028,-1.56308 -0.10709,-0.52337 -0.20783,-1.04906 -0.30213,-1.57697 -0.0943,-0.52792 -0.18216,-1.05807 -0.26349,-1.59037 -0.0813,-0.5323 
-0.15614,-1.06674 -0.22434,-1.60325 -0.0682,-0.5365 -0.12979,-1.07507 -0.18469,-1.61562 -0.0549,-0.54055 -0.10309,-1.08308 -0.14452,-1.6275 
-0.0414,-0.54442 -0.0761,-1.09074 -0.10385,-1.63887 -0.0278,-0.54812 -0.0487,-1.09806 -0.0627,-1.64973 -0.014,-0.55166 -0.021,-1.10505 
-0.021,-1.66008 0,-0.55503 0.007,-1.10842 0.021,-1.66008 0.014,-0.55167 0.0349,-1.1016 0.0627,-1.64973 0.0278,-0.54813 0.0624,-1.09444 
0.10385,-1.63886 0.0414,-0.54443 0.0896,-1.08695 0.14452,-1.6275 0.0549,-0.54055 0.11649,-1.07912 0.18469,-1.61563 0.0682,-0.5365 0.143,-1.07094 
0.22434,-1.60324 0.0813,-0.5323 0.16919,-1.06245 0.26349,-1.59036 0.0943,-0.52792 0.19504,-1.05361 0.30213,-1.57698 0.1071,-0.52337 
0.22056,-1.04442 0.34028,-1.56308 0.11973,-0.51866 0.24573,-1.03491 0.37792,-1.54868 0.13218,-0.51378 0.27056,-1.02506 0.41504,-1.53378 
0.14448,-0.50873 0.29506,-1.01487 0.45167,-1.51837 0.1566,-0.5035 0.31923,-1.00435 0.48779,-1.50246 0.16856,-0.49811 0.34305,-0.99349 
0.5234,-1.48604 0.18035,-0.49255 0.36655,-0.98228 0.55852,-1.46911 0.19196,-0.48683 0.3897,-0.97075 0.59312,-1.45169 0.20341,-0.48093 
0.41251,-0.95887 0.62722,-1.43375 0.2147,-0.47486 0.43499,-0.94666 0.66081,-1.4153 0.22581,-0.46865 0.45714,-0.93412 0.6939,-1.39637 
0.23676,-0.46224 0.47895,-0.92124 0.72649,-1.37691 0.24753,-0.45567 0.50042,-0.90802 0.75856,-1.35696 0.25815,-0.44894 0.52156,-0.89447 
0.79014,-1.3365 0.26859,-0.44203 0.54235,-0.88057 0.82121,-1.31553 0.27886,-0.43496 0.56281,-0.86635 0.85177,-1.29407 0.28896,-0.42772 
0.58293,-0.85177 0.88183,-1.27208 0.2989,-0.42031 0.60272,-0.83687 0.91138,-1.24961 0.30867,-0.41273 0.62217,-0.82163 0.94044,-1.22661 
0.31826,-0.40499 0.64128,-0.80606 0.96897,-1.20313 0.32769,-0.39707 0.66006,-0.79015 0.99701,-1.17913 0.33695,-0.38899 0.6785,-0.7739 
1.02454,-1.15463 0.34605,-0.38074 1.11144,-1.1505 1.46641,-1.52281"
       id="path3772-5"
       inkscape:connector-curvature="0"
       sodipodi:nodetypes="cssssssssssssssssssssssssssssssssssssssssssssssssssssccsssssssssssssssssssssssssssssssssssssssssssssssssssccssssssssssssssssssssssssssssssssssssssssssssssssssssccssssssssssssssssssssssssssssssssssssssssssssssssssc" 
/>
    <path
       sodipodi:type="arc"
       style="fill:none;stroke:#000000;stroke-opacity:1"
       id="path3772-5-0"
       sodipodi:cx="101.52033"
       sodipodi:cy="953.87231"
       sodipodi:rx="99.500023"
       sodipodi:ry="99.500023"
       d="m 201.02036,953.87231 a 99.500023,99.500023 0 1 1 -199.0000506,0 99.500023,99.500023 0 1 1 199.0000506,0 z"
       transform="matrix(0.64641497,0,0,0.64641497,83.559447,266.31991)" />
    <path
       style="fill:none;stroke:#000000;stroke-width:0.646415px;stroke-linecap:butt;stroke-linejoin:miter;stroke-opacity:1"
       d="m 116.8154,915.12743 64.6448,-64.6448"
       id="path3992"
       inkscape:connector-curvature="0" />
    <path
       style="fill:none;stroke:#000000;stroke-width:0.646415px;stroke-linecap:butt;stroke-linejoin:miter;stroke-opacity:1"
       d="M 181.62344,915.29067 116.8154,850.48263"
       id="path3994"
       inkscape:connector-curvature="0" />
    <path
       style="fill:none;stroke:#000000;stroke-width:0.646415px;stroke-linecap:butt;stroke-linejoin:miter;stroke-opacity:1"
       d="m 252.51513,906.61945 -25.92124,25.92124 26.73205,0"
       id="path3996"
       inkscape:connector-curvature="0" />
    <path
       style="fill:none;stroke:#000000;stroke-width:0.646415px;stroke-linecap:butt;stroke-linejoin:miter;stroke-opacity:1"
       d="m 344.66661,932.4937 0,27.09855 -26.69047,-26.69045"
       id="path3998"
       inkscape:connector-curvature="0" />
    <path
       style="fill:none;stroke:#000000;stroke-width:0.646415px;stroke-linecap:butt;stroke-linejoin:miter;stroke-opacity:1"
       d="m 344.63205,868.2552 25.74117,-25.74117 -25.56802,0"
       id="path4000"
       inkscape:connector-curvature="0" />
    <path
       style="fill:none;stroke:#000000;stroke-width:0.646415px;stroke-linecap:butt;stroke-linejoin:miter;stroke-opacity:1"
       d="m 280.10344,842.54601 -27.50669,-27.50668 0,27.91479"
       id="path4002"
       inkscape:connector-curvature="0" />
    <path
       transform="matrix(0.64641497,0,0,0.64641497,374.55945,275.31991)"
       d="m 201.02036,953.87231 a 99.500023,99.500023 0 1 1 -199.0000506,0 99.500023,99.500023 0 1 1 199.0000506,0 z"
       sodipodi:ry="99.500023"
       sodipodi:rx="99.500023"
       sodipodi:cy="953.87231"
       sodipodi:cx="101.52033"
       id="path2992"
       style="fill:none;stroke:#000000;stroke-opacity:1"
       sodipodi:type="arc" />
  </g>
</svg>
